<svg width="370" height="150" viewBox="0 0 370 150" fill="none" xmlns="http://www.w3.org/2000/svg">
<g clip-path="url(#clip0_1_27)">
<path d="M158.249 54.708V61.01H145.093V67.818H154.937V73.936H145.093V87H137.227V54.708H158.249ZM168.639 58.664C167.259 58.664 166.125 58.2653 165.235 57.468C164.377 56.64 163.947 55.628 163.947 54.432C163.947 53.2053 164.377 52.1933 165.235 51.396C166.125 50.568 167.259 50.154 168.639 50.154C169.989 50.154 171.093 50.568 171.951 51.396C172.841 52.1933 173.285 53.2053 173.285 54.432C173.285 55.628 172.841 56.64 171.951 57.468C171.093 58.2653 169.989 58.664 168.639 58.664ZM172.549 61.332V87H164.683V61.332H172.549ZM194.856 80.33V87H190.854C188.002 87 185.778 86.31 184.184 84.93C182.589 83.5193 181.792 81.2347 181.792 78.076V67.864H178.664V61.332H181.792V55.076H189.658V61.332H194.81V67.864H189.658V78.168C189.658 78.9347 189.842 79.4867 190.21 79.824C190.578 80.1613 191.191 80.33 192.05 80.33H194.856ZM234.289 61.056C237.478 61.056 240.008 62.022 241.879 63.954C243.78 65.886 244.731 68.5693 244.731 72.004V87H236.911V73.062C236.911 71.406 236.466 70.1333 235.577 69.244C234.718 68.324 233.522 67.864 231.989 67.864C230.456 67.864 229.244 68.324 228.355 69.244C227.496 70.1333 227.067 71.406 227.067 73.062V87H219.247V73.062C219.247 71.406 218.802 70.1333 217.913 69.244C217.054 68.324 215.858 67.864 214.325 67.864C212.792 67.864 211.58 68.324 210.691 69.244C209.832 70.1333 209.403 71.406 209.403 73.062V87H201.537V61.332H209.403V64.552C210.2 63.4787 211.243 62.6353 212.531 62.022C213.819 61.378 215.276 61.056 216.901 61.056C218.833 61.056 220.55 61.47 222.053 62.298C223.586 63.126 224.782 64.3067 225.641 65.84C226.53 64.4293 227.742 63.2793 229.275 62.39C230.808 61.5007 232.48 61.056 234.289 61.056ZM250.968 74.12C250.968 71.4827 251.459 69.1673 252.44 67.174C253.452 65.1807 254.817 63.6473 256.534 62.574C258.252 61.5007 260.168 60.964 262.284 60.964C264.094 60.964 265.673 61.332 267.022 62.068C268.402 62.804 269.46 63.77 270.196 64.966V61.332H278.062V87H270.196V83.366C269.43 84.562 268.356 85.528 266.976 86.264C265.627 87 264.048 87.368 262.238 87.368C260.153 87.368 258.252 86.8313 256.534 85.758C254.817 84.654 253.452 83.1053 252.44 81.112C251.459 79.088 250.968 76.7573 250.968 74.12ZM270.196 74.166C270.196 72.2033 269.644 70.6547 268.54 69.52C267.467 68.3853 266.148 67.818 264.584 67.818C263.02 67.818 261.686 68.3853 260.582 69.52C259.509 70.624 258.972 72.1573 258.972 74.12C258.972 76.0827 259.509 77.6467 260.582 78.812C261.686 79.9467 263.02 80.514 264.584 80.514C266.148 80.514 267.467 79.9467 268.54 78.812C269.644 77.6773 270.196 76.1287 270.196 74.166ZM293.919 64.966C294.686 63.77 295.744 62.804 297.093 62.068C298.443 61.332 300.022 60.964 301.831 60.964C303.947 60.964 305.864 61.5007 307.581 62.574C309.299 63.6473 310.648 65.1807 311.629 67.174C312.641 69.1673 313.147 71.4827 313.147 74.12C313.147 76.7573 312.641 79.088 311.629 81.112C310.648 83.1053 309.299 84.654 307.581 85.758C305.864 86.8313 303.947 87.368 301.831 87.368C300.053 87.368 298.473 87 297.093 86.264C295.744 85.528 294.686 84.5773 293.919 83.412V99.236H286.053V61.332H293.919V64.966ZM305.143 74.12C305.143 72.1573 304.591 70.624 303.487 69.52C302.414 68.3853 301.08 67.818 299.485 67.818C297.921 67.818 296.587 68.3853 295.483 69.52C294.41 70.6547 293.873 72.2033 293.873 74.166C293.873 76.1287 294.41 77.6773 295.483 78.812C296.587 79.9467 297.921 80.514 299.485 80.514C301.049 80.514 302.383 79.9467 303.487 78.812C304.591 77.6467 305.143 76.0827 305.143 74.12ZM327.44 64.966C328.207 63.77 329.265 62.804 330.614 62.068C331.963 61.332 333.543 60.964 335.352 60.964C337.468 60.964 339.385 61.5007 341.102 62.574C342.819 63.6473 344.169 65.1807 345.15 67.174C346.162 69.1673 346.668 71.4827 346.668 74.12C346.668 76.7573 346.162 79.088 345.15 81.112C344.169 83.1053 342.819 84.654 341.102 85.758C339.385 86.8313 337.468 87.368 335.352 87.368C333.573 87.368 331.994 87 330.614 86.264C329.265 85.528 328.207 84.5773 327.44 83.412V99.236H319.574V61.332H327.44V64.966ZM338.664 74.12C338.664 72.1573 338.112 70.624 337.008 69.52C335.935 68.3853 334.601 67.818 333.006 67.818C331.442 67.818 330.108 68.3853 329.004 69.52C327.931 70.6547 327.394 72.2033 327.394 74.166C327.394 76.1287 327.931 77.6773 329.004 78.812C330.108 79.9467 331.442 80.514 333.006 80.514C334.57 80.514 335.904 79.9467 337.008 78.812C338.112 77.6467 338.664 76.0827 338.664 74.12Z" fill="white"/>
<path d="M87.7296 53.3694C96.0401 53.3694 102.801 46.496 102.801 38.047C102.801 29.598 96.0401 22.7246 87.7296 22.7246C79.4197 22.7246 72.659 29.598 72.659 38.047C72.659 46.496 79.4197 53.3694 87.7296 53.3694ZM87.7296 30.5999C91.7687 30.5999 95.0547 33.9406 95.0547 38.047C95.0547 42.1534 91.7687 45.4942 87.7296 45.4942C83.6906 45.4942 80.4051 42.1534 80.4051 38.047C80.4051 33.9406 83.6906 30.5999 87.7296 30.5999Z" fill="#00BB13"/>
<path d="M119.972 60.3091C118.471 58.7605 116.018 58.7414 114.495 60.2686C114.406 60.3598 104.084 68.7193 73.3639 55.3708C60.0771 49.5977 49.3935 49.0532 41.6092 53.7513C32.107 59.4862 30.9423 70.759 30.8975 71.236C30.6944 73.3921 32.2442 75.2996 34.3638 75.5179C34.4955 75.5314 34.6267 75.5381 34.7561 75.5381C36.7131 75.5381 38.394 74.0278 38.606 72.0078C38.6143 71.9296 39.4995 64.1371 45.6228 60.4875C51.085 57.2316 59.6256 57.9663 70.3186 62.6126C84.832 68.9185 95.5095 70.8676 103.168 70.867C114.424 70.8664 119.156 66.6549 119.932 65.8775C121.456 64.3508 121.473 61.8578 119.972 60.3091Z" fill="#00BB13"/>
<path d="M70.7523 72.3689C69.2767 70.8006 66.8322 70.7415 65.2852 72.2367C46.7615 90.1371 18.5307 117.323 16.504 119.023C14.832 120.336 14.5028 122.777 15.7753 124.501C16.5361 125.532 17.6991 126.076 18.8766 126.076C19.6849 126.076 20.501 125.819 21.1976 125.288C22.9615 123.942 54.4019 93.6123 67.8232 80.6486L86.4891 100.489C87.3169 101.368 87.0419 102.331 86.8847 102.704C86.7282 103.077 86.2346 103.944 85.0373 103.944H59.4867C57.3477 103.944 55.6136 105.707 55.6136 107.882C55.6136 110.056 57.3477 111.819 59.4867 111.819H85.0367C89.0094 111.819 92.447 109.512 94.0073 105.798C95.5681 102.084 94.8323 97.9639 92.0863 95.0456L70.7523 72.3689Z" fill="#00BB13"/>
</g>
<defs>
<clipPath id="clip0_1_27">
<rect width="370" height="150" fill="white"/>
</clipPath>
</defs>
</svg>
