<svg width="400" height="150" viewBox="0 0 400 150" fill="none" xmlns="http://www.w3.org/2000/svg">
<g clip-path="url(#clip0_1_27)">
<path d="M97.2449 51.6637C107.69 51.6637 116.187 43.8889 116.187 34.3319C116.187 24.7748 107.69 17 97.2449 17C86.8007 17 78.3036 24.7748 78.3036 34.3319C78.3036 43.8889 86.8007 51.6637 97.2449 51.6637ZM97.2449 25.908C102.321 25.908 106.451 29.687 106.451 34.3319C106.451 38.9768 102.321 42.7557 97.2449 42.7557C92.1685 42.7557 88.0392 38.9768 88.0392 34.3319C88.0392 29.687 92.1685 25.908 97.2449 25.908Z" fill="#00BB13"/>
<path d="M137.768 59.5136C135.881 57.7619 132.799 57.7403 130.885 59.4678C130.772 59.5709 117.799 69.0268 79.1896 53.9276C62.4903 47.3974 49.0629 46.7815 39.2793 52.0958C27.3366 58.5827 25.8727 71.3339 25.8164 71.8735C25.5612 74.3124 27.509 76.4701 30.1731 76.7169C30.3386 76.7322 30.5034 76.7399 30.6661 76.7399C33.1257 76.7399 35.2384 75.0314 35.5047 72.7465C35.5151 72.6581 36.6278 63.8436 44.3237 59.7153C51.1887 56.0325 61.9228 56.8635 75.3621 62.1192C93.6031 69.252 107.023 71.4567 116.649 71.4561C130.796 71.4555 136.743 66.6916 137.718 65.8122C139.633 64.0853 139.655 61.2653 137.768 59.5136Z" fill="#00BB13"/>
<path d="M75.9073 73.155C74.0527 71.381 70.9804 71.3142 69.0361 73.0055C45.7549 93.2534 10.2736 124.005 7.72637 125.928C5.62488 127.413 5.21111 130.173 6.81053 132.124C7.7667 133.29 9.22843 133.905 10.7082 133.905C11.7242 133.905 12.7499 133.615 13.6254 133.014C15.8423 131.492 55.3576 97.1844 72.2259 82.5205L95.6858 104.962C96.7261 105.958 96.3805 107.046 96.183 107.468C95.9862 107.89 95.3659 108.871 93.8611 108.871H61.7483C59.0599 108.871 56.8805 110.865 56.8805 113.325C56.8805 115.785 59.0599 117.779 61.7483 117.779H93.8604C98.8533 117.779 103.174 115.169 105.135 110.968C107.097 106.767 106.172 102.107 102.72 98.8057L75.9073 73.155Z" fill="#00BB13"/>
</g>
<path d="M199.441 52.688V60.36H183.425V68.648H195.409V76.096H183.425V92H173.849V52.688H199.441ZM212.09 57.504C210.41 57.504 209.029 57.0187 207.946 56.048C206.901 55.04 206.378 53.808 206.378 52.352C206.378 50.8587 206.901 49.6267 207.946 48.656C209.029 47.648 210.41 47.144 212.09 47.144C213.733 47.144 215.077 47.648 216.122 48.656C217.205 49.6267 217.746 50.8587 217.746 52.352C217.746 53.808 217.205 55.04 216.122 56.048C215.077 57.0187 213.733 57.504 212.09 57.504ZM216.85 60.752V92H207.274V60.752H216.85ZM244.006 83.88V92H239.134C235.662 92 232.955 91.16 231.014 89.48C229.072 87.7627 228.102 84.9813 228.102 81.136V68.704H224.294V60.752H228.102V53.136H237.678V60.752H243.95V68.704H237.678V81.248C237.678 82.1813 237.902 82.8533 238.35 83.264C238.798 83.6747 239.544 83.88 240.59 83.88H244.006ZM292.012 60.416C295.894 60.416 298.974 61.592 301.252 63.944C303.566 66.296 304.724 69.5627 304.724 73.744V92H295.204V75.032C295.204 73.016 294.662 71.4667 293.58 70.384C292.534 69.264 291.078 68.704 289.212 68.704C287.345 68.704 285.87 69.264 284.788 70.384C283.742 71.4667 283.22 73.016 283.22 75.032V92H273.7V75.032C273.7 73.016 273.158 71.4667 272.076 70.384C271.03 69.264 269.574 68.704 267.708 68.704C265.841 68.704 264.366 69.264 263.284 70.384C262.238 71.4667 261.716 73.016 261.716 75.032V92H252.14V60.752H261.716V64.672C262.686 63.3653 263.956 62.3387 265.524 61.592C267.092 60.808 268.865 60.416 270.844 60.416C273.196 60.416 275.286 60.92 277.116 61.928C278.982 62.936 280.438 64.3733 281.484 66.24C282.566 64.5227 284.041 63.1227 285.908 62.04C287.774 60.9573 289.809 60.416 292.012 60.416ZM312.317 76.32C312.317 73.1093 312.914 70.2907 314.109 67.864C315.341 65.4373 317.002 63.5707 319.093 62.264C321.184 60.9573 323.517 60.304 326.093 60.304C328.296 60.304 330.218 60.752 331.861 61.648C333.541 62.544 334.829 63.72 335.725 65.176V60.752H345.301V92H335.725V87.576C334.792 89.032 333.485 90.208 331.805 91.104C330.162 92 328.24 92.448 326.037 92.448C323.498 92.448 321.184 91.7947 319.093 90.488C317.002 89.144 315.341 87.2587 314.109 84.832C312.914 82.368 312.317 79.5307 312.317 76.32ZM335.725 76.376C335.725 73.9867 335.053 72.1013 333.709 70.72C332.402 69.3387 330.797 68.648 328.893 68.648C326.989 68.648 325.365 69.3387 324.021 70.72C322.714 72.064 322.061 73.9307 322.061 76.32C322.061 78.7093 322.714 80.6133 324.021 82.032C325.365 83.4133 326.989 84.104 328.893 84.104C330.797 84.104 332.402 83.4133 333.709 82.032C335.053 80.6507 335.725 78.7653 335.725 76.376ZM364.605 65.176C365.538 63.72 366.826 62.544 368.469 61.648C370.111 60.752 372.034 60.304 374.237 60.304C376.813 60.304 379.146 60.9573 381.237 62.264C383.327 63.5707 384.97 65.4373 386.165 67.864C387.397 70.2907 388.013 73.1093 388.013 76.32C388.013 79.5307 387.397 82.368 386.165 84.832C384.97 87.2587 383.327 89.144 381.237 90.488C379.146 91.7947 376.813 92.448 374.237 92.448C372.071 92.448 370.149 92 368.469 91.104C366.826 90.208 365.538 89.0507 364.605 87.632V106.896H355.029V60.752H364.605V65.176ZM378.269 76.32C378.269 73.9307 377.597 72.064 376.253 70.72C374.946 69.3387 373.322 68.648 371.381 68.648C369.477 68.648 367.853 69.3387 366.509 70.72C365.202 72.1013 364.549 73.9867 364.549 76.376C364.549 78.7653 365.202 80.6507 366.509 82.032C367.853 83.4133 369.477 84.104 371.381 84.104C373.285 84.104 374.909 83.4133 376.253 82.032C377.597 80.6133 378.269 78.7093 378.269 76.32Z" fill="white"/>
<defs>
<clipPath id="clip0_1_27">
<rect width="150.82" height="138" fill="white" transform="translate(5.83606 6)"/>
</clipPath>
</defs>
</svg>
